<svg xmlns="http://www.w3.org/2000/svg" width="38" height="33" viewBox="0 0 38 33" fill="none">
<path d="M21.3462 29.2234C22.1467 28.7557 22.9703 28.1159 23.8681 27.4082C24.3636 27.0177 24.8682 26.6286 25.3777 26.2357L25.3809 26.2332L25.3809 26.2332L25.3946 26.2227C27.5343 24.573 29.7603 22.857 31.6032 20.7818C33.8525 18.249 35.4444 15.2645 35.4444 11.3859C35.4444 7.56393 33.2842 4.34008 30.3062 2.97883C27.6415 1.76083 24.1722 1.97507 20.8278 4.90027L20.5328 5.15822L20.8099 5.43522L23.3071 7.93163L23.3072 7.93166C23.666 8.29025 23.6661 8.87172 23.3074 9.23044L23.3074 9.23048C22.9489 9.58918 22.3673 9.58928 22.0087 9.23071L22.0087 9.23069L18.584 5.80725L18.5824 5.8057L18.5682 5.79132C14.9491 2.03222 11.0765 1.6444 8.15713 2.97883L8.30946 3.31209L8.15713 2.97883C5.17912 4.34009 3.01892 7.56394 3.01892 11.3859C3.01892 15.2645 4.61093 18.249 6.86016 20.7818L7.13414 20.5385L21.1613 28.9071M21.3462 29.2234L21.1613 28.9071M21.3462 29.2234C21.3462 29.2234 21.3462 29.2234 21.3462 29.2234L21.1613 28.9071M21.3462 29.2234C20.5455 29.6915 19.8551 29.9334 19.2317 29.9334C18.6083 29.9334 17.9179 29.6915 17.1171 29.2234M21.1613 28.9071C20.3861 29.3602 19.7621 29.567 19.2317 29.567C18.7013 29.567 18.0772 29.3602 17.302 28.9071M17.1171 29.2234C17.1171 29.2234 17.1171 29.2234 17.1172 29.2234L17.302 28.9071M17.1171 29.2234C16.3166 28.7556 15.493 28.1159 14.5953 27.4082M17.1171 29.2234L17.302 28.9071M17.302 28.9071L14.5953 27.4082M14.5953 27.4082C14.5954 27.4082 14.5954 27.4082 14.5954 27.4082L14.8222 27.1205L14.5953 27.4082ZM14.5953 27.4082C14.0998 27.0176 13.5951 26.6285 13.0855 26.2356L13.0825 26.2332L13.3062 25.943L13.0825 26.2332L14.5953 27.4082ZM21.069 5.17608L21.3281 4.91693L21.349 4.93787C21.2556 5.0151 21.1623 5.09449 21.069 5.17608ZM21.069 5.17608L21.3102 5.45189C21.3164 5.4465 21.3226 5.44111 21.3287 5.43574L21.069 5.17608ZM18.9874 3.64449L19.2317 3.86309L19.476 3.6445C23.3389 0.188464 27.6201 -0.268582 31.0698 1.30826L31.2217 0.976041L31.0698 1.30826C34.7301 2.98134 37.2813 6.87675 37.2813 11.3859C37.2813 15.8377 35.4305 19.2384 32.9767 22.0014C31.0056 24.2208 28.5885 26.0834 26.4246 27.7496C25.9352 28.1262 25.4587 28.4932 25.0052 28.8507C24.1243 29.5451 23.2021 30.2665 22.273 30.8093L22.4578 31.1257L22.273 30.8094C21.3441 31.3521 20.3214 31.7702 19.2317 31.7702C18.142 31.7702 17.1192 31.3521 16.1904 30.8094C15.2614 30.2665 14.339 29.5451 13.4582 28.8508L13.4582 28.8507C13.0046 28.4932 12.5281 28.1262 12.0388 27.7495C9.87489 26.0834 7.45774 24.2208 5.48674 22.0014L5.21276 22.2448L5.48674 22.0014C3.03284 19.2384 1.1821 15.8377 1.1821 11.3859C1.1821 6.87675 3.73332 2.98134 7.3935 1.30826C10.8432 -0.268583 15.1246 0.188466 18.9874 3.64449Z" fill="white" stroke="#145959" stroke-width="0.732851"/>
</svg>