<svg xmlns="http://www.w3.org/2000/svg" width="51" height="51" viewBox="0 0 51 51" fill="none">
<g clip-path="url(#clip0_15_200)">
<path d="M18.1372 39.6362L20.9591 38.0082C22.001 37.4112 22.3483 36.0763 21.7514 35.0452L20.666 33.1676" stroke="#404145" stroke-width="1.62799" stroke-miterlimit="10"/>
<path d="M15.0358 36.4236L15.4374 37.1073C15.8932 37.8996 16.4901 38.5942 17.1848 39.1803C17.1848 39.1803 21.3958 42.1541 22.7416 43.2612C24.8689 45.0085 23.5231 46.5714 22.492 47.1683L21.5478 47.711C19.6702 48.7963 17.9879 47.2335 17.0979 46.5171C16.208 45.8008 11.541 42.4363 11.541 42.4363C10.8356 41.8611 10.2386 41.1556 9.79366 40.3633L9.39209 39.6796" fill="#A6EACA"/>
<path d="M15.0358 36.4236L15.4374 37.1073C15.8932 37.8996 16.4901 38.5942 17.1848 39.1803C17.1848 39.1803 21.3958 42.1541 22.7416 43.2612C24.8689 45.0085 23.5231 46.5714 22.492 47.1683L21.5478 47.711C19.6702 48.7963 17.9879 47.2335 17.0979 46.5171C16.208 45.8008 11.541 42.4363 11.541 42.4363C10.8356 41.8611 10.2386 41.1556 9.79366 40.3633L9.39209 39.6796" stroke="#404145" stroke-width="1.62799" stroke-miterlimit="10"/>
<path d="M31.2153 14.5434C33.2883 13.3387 35.9799 14.1201 37.1412 16.128C38.3025 18.1467 37.6296 20.86 35.5566 22.0539" fill="#A6EACA"/>
<path d="M31.2153 14.5434C33.2883 13.3387 35.9799 14.1201 37.1412 16.128C38.3025 18.1467 37.6296 20.86 35.5566 22.0539" stroke="#404145" stroke-width="1.62799" stroke-miterlimit="10"/>
<path d="M16.4336 19.3188C19.6245 17.4737 22.3161 11.1897 24.0092 5.68706C24.2914 4.78623 25.5178 4.65599 25.9845 5.46999L40.2566 30.1938C40.7342 31.0186 40.007 32.0063 39.0845 31.8001C33.4733 30.5194 26.69 29.7054 23.4883 31.5505L12.2117 38.0624C10.7143 38.9234 8.93663 39.1556 7.26835 38.708C5.60007 38.2604 4.17732 37.1696 3.31201 35.6747L2.76934 34.7305C1.90834 33.2331 1.67618 31.4554 2.12377 29.7871C2.57136 28.1188 3.66217 26.6961 5.15707 25.8308L16.4336 19.3188ZM16.4336 19.3188L23.4883 31.5396" stroke="#404145" stroke-width="1.62799" stroke-miterlimit="10"/>
<path d="M36.5549 9.45315L38.4651 2.34424M42.6328 19.9808L49.7525 21.891M40.7226 14.0658L46.7353 10.5927" stroke="#404145" stroke-width="1.62799" stroke-miterlimit="10" stroke-linecap="round"/>
</g>
<defs>
<clipPath id="clip0_15_200">
<rect width="49.9252" height="49.9252" fill="white" transform="translate(0.81543 0.173584)"/>
</clipPath>
</defs>
</svg>