<svg xmlns="http://www.w3.org/2000/svg" width="51" height="51" viewBox="0 0 51 51" fill="none">
<g clip-path="url(#clip0_15_213)">
<path d="M47.7429 13.114H49.8419V42.496H32.0024L29.9044 44.595H21.5094L19.4104 42.496H1.5708V13.114H3.66983" stroke="#404145" stroke-width="1.62799" stroke-miterlimit="10"/>
<path d="M7.86698 9.96545H5.76904V38.2991H19.4105C21.4466 38.2991 22.8207 38.8656 23.6075 40.397H25.7065" fill="#A6EACA"/>
<path d="M7.86698 9.96545H5.76904V38.2991H19.4105C21.4466 38.2991 22.8207 38.8656 23.6075 40.397H25.7065" stroke="#404145" stroke-width="1.62799" stroke-miterlimit="10"/>
<path d="M43.5461 9.96545H45.644V38.2991H32.0025C29.9675 38.2991 28.5924 38.8656 27.8056 40.397H25.7065" fill="#A6EACA"/>
<path d="M43.5461 9.96545H45.644V38.2991H32.0025C29.9675 38.2991 28.5924 38.8656 27.8056 40.397H25.7065" stroke="#404145" stroke-width="1.62799" stroke-miterlimit="10"/>
<path d="M27.8056 40.397H25.7066V16.2614C25.7066 12.8513 27.1761 9.58772 30.5124 8.83233L41.4471 5.60022V33.9327L30.5124 37.1649C28.6869 37.6684 28.1931 38.6767 27.8056 40.397ZM23.6087 40.397H25.7066V16.2614C25.7066 12.8513 24.2381 9.58772 20.9008 8.83233L9.96606 5.60022V33.9327L20.9008 37.1649C22.7263 37.6684 23.2201 38.6767 23.6087 40.397Z" fill="white"/>
<path d="M25.7066 40.397H27.8056C28.1931 38.6767 28.6869 37.6684 30.5124 37.1649L41.4471 33.9327V5.60022L30.5124 8.83233C27.1761 9.58772 25.7066 12.8513 25.7066 16.2614M25.7066 40.397V16.2614M25.7066 40.397H23.6087C23.2201 38.6767 22.7263 37.6684 20.9008 37.1649L9.96606 33.9327V5.60022L20.9008 8.83233C24.2381 9.58772 25.7066 12.8513 25.7066 16.2614" stroke="#404145" stroke-width="1.62799" stroke-miterlimit="10"/>
</g>
<defs>
<clipPath id="clip0_15_213">
<rect width="49.9252" height="49.9252" fill="white" transform="translate(0.744141 0.173584)"/>
</clipPath>
</defs>
</svg>