<svg xmlns="http://www.w3.org/2000/svg" width="35" height="34" viewBox="0 0 35 34" fill="none">
<path d="M27.2832 15.1011V21.518C27.2832 21.9351 27.2672 22.3362 27.2191 22.7212C26.8501 27.0526 24.2994 29.2023 19.599 29.2023H18.9573C18.5562 29.2023 18.1712 29.3948 17.9306 29.7156L16.0055 32.2824C15.1553 33.4214 13.7756 33.4214 12.9254 32.2824L11.0003 29.7156C10.7918 29.4429 10.3266 29.2023 9.97363 29.2023H9.33196C4.21448 29.2023 1.64771 27.9349 1.64771 21.518V15.1011C1.64771 10.4008 3.81342 7.85004 8.12879 7.48107C8.5138 7.43294 8.91486 7.41689 9.33196 7.41689H19.599C24.7165 7.41689 27.2832 9.98366 27.2832 15.1011Z" stroke="white" stroke-width="1.37409" stroke-miterlimit="10" stroke-linecap="round" stroke-linejoin="round"/>
<path d="M33.7003 8.68425V15.1011C33.7003 19.8176 31.5346 22.3522 27.2192 22.7212C27.2674 22.3362 27.2834 21.9351 27.2834 21.518V15.1011C27.2834 9.98368 24.7167 7.4169 19.5992 7.4169H9.3322C8.9151 7.4169 8.51404 7.43296 8.12903 7.48109C8.498 3.16572 11.0487 1 15.749 1H26.0161C31.1336 1 33.7003 3.56678 33.7003 8.68425Z" stroke="white" stroke-width="1.37409" stroke-miterlimit="10" stroke-linecap="round" stroke-linejoin="round"/>
<path d="M20.0889 19.0475H20.1033" stroke="white" stroke-width="3.20845" stroke-linecap="round" stroke-linejoin="round"/>
<path d="M14.4744 19.0475H14.4888" stroke="white" stroke-width="3.20845" stroke-linecap="round" stroke-linejoin="round"/>
<path d="M8.85901 19.0475H8.87345" stroke="white" stroke-width="3.20845" stroke-linecap="round" stroke-linejoin="round"/>
</svg>