<svg xmlns="http://www.w3.org/2000/svg" width="32" height="33" viewBox="0 0 32 33" fill="none">
<path d="M10.7197 25.2153H4.84412C2.6666 25.2153 1.57786 25.2153 1.34878 25.0462C1.09142 24.8562 1.02854 24.7441 1.00067 24.4255C0.975871 24.1419 1.64316 23.0499 2.97777 20.8662C4.35573 18.6114 5.52579 15.3284 5.52579 10.6804C5.52579 8.11047 6.61961 5.64581 8.5666 3.82859C10.5136 2.01138 13.1543 0.990479 15.9078 0.990479C18.6613 0.990479 21.302 2.01138 23.249 3.82859C25.1961 5.64581 26.2899 8.11047 26.2899 10.6804C26.2899 15.3284 27.4599 18.6114 28.838 20.8662C30.1724 23.0499 30.8398 24.1419 30.8151 24.4255C30.7872 24.7441 30.7242 24.8562 30.4669 25.0462C30.2378 25.2153 29.1491 25.2153 26.9716 25.2153H21.0988M10.7197 25.2153L10.7168 26.9456C10.7168 29.8126 13.041 32.1366 15.9078 32.1366C18.7748 32.1366 21.0988 29.8126 21.0988 26.9456V25.2153M10.7197 25.2153H21.0988" stroke="white" stroke-width="1.38427" stroke-linecap="round" stroke-linejoin="round"/>
</svg>