<svg xmlns="http://www.w3.org/2000/svg" width="51" height="51" viewBox="0 0 51 51" fill="none">
<g clip-path="url(#clip0_15_225)">
<path d="M40.5945 31.9976C33.0081 29.3679 21.4797 34.6274 10.151 33.6147C9.84823 33.6147 9.03857 33.5149 9.03857 33.5149V41.504C9.03857 41.504 9.84823 41.606 10.1521 41.606C21.4797 42.6176 33.0092 37.358 40.5945 39.9878C40.8984 40.0887 41.6061 40.3915 41.6061 40.3915V32.4024C41.707 32.4024 40.8973 32.0985 40.5945 31.9976Z" fill="#A6EACA"/>
<path d="M7.2187 37.8638C5.80235 36.8523 3.47649 37.0542 2.46496 37.3581C2.46496 37.3581 2.76885 35.8408 5.09471 34.1216C5.09471 34.1216 4.58895 31.8967 1.75732 31.3909C1.75732 31.3909 5.29767 27.8506 13.0849 31.087C13.0849 31.087 12.6801 31.4919 12.0734 31.9976M43.5273 35.436C44.9437 36.2456 47.2695 36.2456 48.2811 35.9417C48.2811 35.9417 47.9772 37.459 45.6513 39.1782C45.6513 39.1782 46.1571 41.4031 48.9887 41.9089C48.9887 41.9089 45.1466 45.6511 37.6611 42.2128C37.6611 42.2128 38.0659 41.8079 38.6726 41.3022" fill="#A6EACA"/>
<path d="M40.5945 31.9976C33.0081 29.3679 21.4797 34.6274 10.151 33.6147C9.84823 33.6147 9.03857 33.5149 9.03857 33.5149V41.504C9.03857 41.504 9.84823 41.606 10.1521 41.606C21.4797 42.6176 33.0092 37.358 40.5945 39.9878C40.8984 40.0887 41.6061 40.3915 41.6061 40.3915V32.4024C41.707 32.4024 40.8973 32.0985 40.5945 31.9976Z" stroke="#404145" stroke-width="1.62799" stroke-miterlimit="10" stroke-linecap="round" stroke-linejoin="round"/>
<path d="M7.2187 37.8638C5.80235 36.8523 3.47649 37.0542 2.46496 37.3581C2.46496 37.3581 2.76885 35.8408 5.09471 34.1216C5.09471 34.1216 4.58895 31.8967 1.75732 31.3909C1.75732 31.3909 5.29767 27.8506 13.0849 31.087C13.0849 31.087 12.6801 31.4919 12.0734 31.9976M43.5273 35.4359C44.9437 36.2456 47.2695 36.2456 48.2811 35.9417C48.2811 35.9417 47.9772 37.459 45.6513 39.1782C45.6513 39.1782 46.1571 41.4031 48.9887 41.9089C48.9887 41.9089 45.1466 45.6511 37.6611 42.2127C37.6611 42.2127 38.0659 41.8079 38.6726 41.3022M26.6374 5.70117L30.4806 12.6798L38.2689 14.1971L32.8075 19.9624L33.819 27.8506L26.6374 24.4123L19.4569 27.8506L20.4684 19.9624L15.007 14.1971L22.7943 12.6798L26.6374 5.70117Z" stroke="#404145" stroke-width="1.62799" stroke-miterlimit="10" stroke-linecap="round" stroke-linejoin="round"/>
<path d="M16.6239 21.6815C15.9163 21.3777 15.4105 21.0738 15.4105 21.0738L9.44339 23.9065L10.253 17.3326L5.70117 12.5789L12.1741 11.3655L15.3107 5.60022C15.3107 5.60022 16.7259 8.22997 17.6355 9.94913M35.5369 9.94913C36.3265 8.48862 37.1359 7.03885 37.9648 5.60022L41.1003 11.3655L47.5732 12.5789L43.0213 17.3326L43.831 23.9065L37.8638 21.0738C37.8638 21.0738 37.3581 21.2767 36.5484 21.6815" stroke="#404145" stroke-width="1.62799" stroke-miterlimit="10" stroke-linecap="round" stroke-linejoin="round"/>
</g>
<defs>
<clipPath id="clip0_15_225">
<rect width="49.9252" height="49.9252" fill="white" transform="translate(0.672119 0.173584)"/>
</clipPath>
</defs>
</svg>