<svg xmlns="http://www.w3.org/2000/svg" width="29" height="28" viewBox="0 0 29 28" fill="none">
<g filter="url(#filter0_d_1_126)">
<path d="M19.3233 2.18848H9.67675C5.48661 2.18848 2.98865 4.68647 2.98865 8.87666V18.5118C2.98865 22.7135 5.48661 25.2115 9.67675 25.2115H19.3118C23.5019 25.2115 25.9999 22.7135 25.9999 18.5233V8.87666C26.0114 4.68647 23.5134 2.18848 19.3233 2.18848ZM20.1176 13.1589C20.1176 13.6079 19.7607 13.9647 19.3118 13.9647C18.8628 13.9647 18.506 13.6079 18.506 13.1589V12.9517L15.3749 16.0829C15.2022 16.2555 14.972 16.3361 14.7302 16.3131C14.4885 16.2901 14.2698 16.1634 14.1432 15.9562L12.969 14.2065L10.2293 16.9462C10.0681 17.1074 9.87245 17.1764 9.66524 17.1764C9.45804 17.1764 9.25083 17.0959 9.10118 16.9462C8.79038 16.6354 8.79038 16.1289 9.10118 15.8066L12.5316 12.3762C12.7042 12.2035 12.9345 12.1229 13.1762 12.1459C13.4179 12.1689 13.6367 12.2956 13.7633 12.5028L14.9374 14.2525L17.3663 11.8236H17.1591C16.7102 11.8236 16.3533 11.4667 16.3533 11.0178C16.3533 10.5688 16.7102 10.212 17.1591 10.212H19.3003C19.4039 10.212 19.5075 10.235 19.6111 10.2696C19.8068 10.3501 19.9679 10.5113 20.0485 10.707C20.0945 10.8106 20.1061 10.9142 20.1061 11.0178V13.1589H20.1176Z" fill="white"/>
</g>
<defs>
<filter id="filter0_d_1_126" x="0.957218" y="0.157047" width="27.0741" height="27.0859" filterUnits="userSpaceOnUse" color-interpolation-filters="sRGB">
<feFlood flood-opacity="0" result="BackgroundImageFix"/>
<feColorMatrix in="SourceAlpha" type="matrix" values="0 0 0 0 0 0 0 0 0 0 0 0 0 0 0 0 0 0 127 0" result="hardAlpha"/>
<feOffset/>
<feGaussianBlur stdDeviation="1.01571"/>
<feComposite in2="hardAlpha" operator="out"/>
<feColorMatrix type="matrix" values="0 0 0 0 1 0 0 0 0 1 0 0 0 0 1 0 0 0 0.25 0"/>
<feBlend mode="normal" in2="BackgroundImageFix" result="effect1_dropShadow_1_126"/>
<feBlend mode="normal" in="SourceGraphic" in2="effect1_dropShadow_1_126" result="shape"/>
</filter>
</defs>
</svg>